<svg width="220" height="220" viewBox="0 0 220 220" fill="none" xmlns="http://www.w3.org/2000/svg" role="img" aria-label="Logo S y L">
  <circle cx="110" cy="110" r="92" stroke="#93665D" stroke-width="2" opacity="0.45"/>
  <circle cx="110" cy="110" r="78" stroke="#78806D" stroke-width="1.4" opacity="0.28"/>
  <path d="M50 115C66 91 89 78 110 78C131 78 154 91 170 115" stroke="#93665D" stroke-width="1.2" opacity="0.42"/>
  <path d="M52 125C70 146 91 154 110 154C129 154 150 146 168 125" stroke="#93665D" stroke-width="1.2" opacity="0.42"/>
  <text x="110" y="126" text-anchor="middle" font-size="72" font-family="Cormorant Garamond, Georgia, serif" font-weight="500" fill="#68473F" letter-spacing="-6">S&amp;L</text>
  <path d="M110 38C114 48 121 55 132 58C121 62 114 69 110 80C106 69 99 62 88 58C99 55 106 48 110 38Z" fill="#C59A8D" opacity="0.65"/>
  <path d="M110 142C113 150 119 156 128 159C119 162 113 168 110 177C107 168 101 162 92 159C101 156 107 150 110 142Z" fill="#78806D" opacity="0.55"/>
</svg>
